<?xml version="1.0" encoding="UTF-8"?>
<svg xmlns="http://www.w3.org/2000/svg" xmlns:xlink="http://www.w3.org/1999/xlink" width="66pt" height="25pt" viewBox="0 0 756 290" version="1.1">
<g id="surface1">
<path style=" stroke:none;fill-rule:evenodd;fill:rgb(47.499084%,76.899719%,46.299744%);fill-opacity:1;" d="M 755.796875 289.304688 L 0.511719 289.304688 L 0.511719 140.105469 C 0.511719 63.136719 63.289063 0.359375 140.261719 0.359375 L 755.796875 0.359375 L 755.796875 289.304688 "/>
<path style=" stroke:none;fill-rule:evenodd;fill:rgb(100%,100%,100%);fill-opacity:1;" d="M 216.414063 213.820313 L 216.414063 148.824219 C 216.414063 116.382813 189.890625 89.863281 157.453125 89.863281 L 152.394531 89.863281 C 120.421875 89.863281 94.28125 116.003906 94.28125 147.972656 L 94.28125 149.757813 C 94.28125 185.007813 123.097656 213.820313 158.347656 213.820313 Z M 246.175781 243.585938 L 158.347656 243.585938 C 106.667969 243.585938 64.519531 201.4375 64.519531 149.757813 L 64.519531 147.972656 C 64.519531 99.574219 103.992188 60.097656 152.394531 60.097656 L 157.453125 60.097656 C 206.320313 60.097656 246.175781 99.953125 246.175781 148.824219 Z M 432.238281 59.921875 L 381.601563 59.921875 L 381.601563 0.359375 L 351.839844 0.359375 L 351.839844 59.921875 L 350.394531 59.921875 C 301.371094 59.921875 261.386719 99.90625 261.386719 148.929688 L 261.386719 243.585938 L 291.152344 243.585938 L 291.152344 148.929688 C 291.152344 116.335938 317.800781 89.6875 350.394531 89.6875 L 351.839844 89.6875 L 351.839844 150.972656 C 351.839844 201.507813 392.804688 242.472656 443.339844 242.472656 C 463.894531 242.472656 482.867188 235.691406 498.144531 224.246094 C 513.554688 236.050781 532.824219 243.070313 553.738281 243.070313 L 690.839844 243.070313 L 690.839844 0.359375 L 661.074219 0.359375 L 661.074219 213.308594 L 553.96875 213.308594 L 553.96875 213.304688 C 553.890625 213.304688 553.8125 213.308594 553.738281 213.308594 C 525.003906 213.308594 500.859375 193.679688 493.972656 167.101563 L 643.917969 167.101563 C 644.78125 162.054688 645.238281 156.867188 645.238281 151.570313 C 645.238281 101.039063 604.269531 60.070313 553.738281 60.070313 C 503.203125 60.070313 462.238281 101.039063 462.238281 151.570313 C 462.238281 170.351563 467.898438 187.8125 477.605469 202.335938 C 467.800781 208.886719 456.019531 212.707031 443.339844 212.707031 C 409.234375 212.707031 381.601563 185.078125 381.601563 150.972656 L 381.601563 89.6875 L 432.238281 89.6875 Z M 493.839844 136.570313 C 500.542969 109.726563 524.816406 89.835938 553.738281 89.835938 C 582.660156 89.835938 606.933594 109.726563 613.632813 136.570313 L 493.839844 136.570313 "/>
</g>
</svg>
