<svg xmlns="http://www.w3.org/2000/svg" xmlns:xlink="http://www.w3.org/1999/xlink" viewBox="0 0 614.61 630"><defs><style>.cls-1{fill:url(#linear-gradient);}.cls-2{fill:url(#linear-gradient-2);}.cls-3{fill:url(#linear-gradient-3);}</style><linearGradient id="linear-gradient" x1="138.22" y1="514.65" x2="351.25" y2="301.63" gradientUnits="userSpaceOnUse"><stop offset="0" stop-color="#01cea7"/><stop offset="0.27" stop-color="#01ce9e"/><stop offset="0.7" stop-color="#01ce84"/><stop offset="0.99" stop-color="#01ce70"/></linearGradient><linearGradient id="linear-gradient-2" x1="66.58" y1="318.01" x2="389.31" y2="-4.71" xlink:href="#linear-gradient"/><linearGradient id="linear-gradient-3" x1="302.57" y1="434.54" x2="622.46" y2="114.66" xlink:href="#linear-gradient"/></defs><g id="Layer_2" data-name="Layer 2"><g id="Layer_1-2" data-name="Layer 1"><path class="cls-1" d="M435.85,525.23c-62.25.65-115-23.84-148.65-69-42-56.4-49.11-139.06-20-232.74a8,8,0,0,0-4.69-9.74c-96-37.46-176-3.64-231.22,97.8a7.93,7.93,0,0,0-.87,5.05c23.88,149.1,157.21,259.27,274,312.66,0,0,.08,0,.11,0a8,8,0,0,0,6.26.07c45.05-18.95,92.73-52,130.8-90.69A7.93,7.93,0,0,0,435.85,525.23ZM46.48,316.79c49.87-90,117.77-120.63,202-91.29-38.87,76.33-56.21,143-53,203.5h0c3.13,58.93,26.46,112.63,71,163.06C167,535.45,67.4,439.89,46.48,316.79ZM309.23,612.71c-63.09-57.5-94.31-116.26-97.94-184.54v0c-2.23-41.75,6-86.85,24.94-136.55a317.18,317.18,0,0,0-2.11,54.7c2.45,46,16,86.69,40.37,119.43,33.21,44.59,83.29,70.73,142.46,74.8C384.22,570.88,346,596.53,309.23,612.71Z"/><path class="cls-2" d="M164.33,173.22c69.84-8.18,145,27,211.58,99l.08.07a7.94,7.94,0,0,0,10.69.73c48.94-39.2,72.32-85.94,69.5-138.92-1.82-34.23-14.8-71.31-38.58-110.23a8,8,0,0,0-3.94-3.27C272.6-33.24,110.52,27.13,5.87,101.6a8.1,8.1,0,0,0-3.28,5.47,369.07,369.07,0,0,0-2,65.18,443.55,443.55,0,0,0,15.15,93.44,7.94,7.94,0,0,0,14.55,1.78C60.84,213.24,108.45,179.77,164.33,173.22ZM405.47,34.48C427,70.27,438.7,104.06,440.35,135c2.4,45.11-16.69,85.47-56.79,120.06C291.71,113.63,189.32,60.46,57.14,87.33,155.91,29.48,288.43-8.95,405.47,34.48Zm-379,209c-9.92-43.53-13-89.49-8.65-129.38,127.19-40.39,226.44-10.41,314.22,97-55.2-41.3-113.73-60.13-169.56-53.59C107.28,163.94,59.59,194.24,26.48,243.45Z"/><path class="cls-3" d="M613.87,130.25c-.74-14-1.76-23.46-1.76-23.46a8.19,8.19,0,0,0-3.07-5.45C570.1,71.79,517.64,47,465.1,33.41a7.93,7.93,0,0,0-8.81,11.71C488,98.7,493.16,156.66,470.89,208.33,443.05,272.9,375,320.39,279.35,342l-.07,0a8,8,0,0,0-6,8.89c15.57,101.9,84.84,154.23,200.31,151.35a7.87,7.87,0,0,0,4.8-1.77C616.43,388.36,617,188.76,613.87,130.25ZM485.44,214.6c22-51,19.61-107.5-6.44-160.77C521.65,67,563,87.32,595.37,111,566.74,241.37,491.16,312.34,354.26,334.65,417.62,307.49,463.2,266.22,485.44,214.6Zm-15,271.93c-102.83,1.79-163.36-41.68-180-129.26,168.24-8.83,265.46-70.81,308.33-198.51C598.83,234.82,584,392.47,470.47,486.53Z"/></g></g></svg>