<svg id="_x33_0" enable-background="new 0 0 64 64" height="512" viewBox="0 0 64 64" width="512" xmlns="http://www.w3.org/2000/svg"><g><path d="m63 1h-28v19.026c-1.207.914-2 2.348-2 3.974v2c0 2.449 1.267 4.605 3.177 5.857-2.144 1.006-3.85 2.834-4.664 5.143h-3.349c-.705-1.614-1.814-2.979-3.18-4h6.016v-32h-28v32h7.997c-1.355 1.017-2.453 2.382-3.161 4.007-1.733 1.511-2.836 3.743-2.836 6.258 0 1.309.294 2.56.874 3.72l.548 1.096c.512 1.023 1.472 1.709 2.578 1.877v1.244c-4.559.929-8 4.969-8 9.798v2h62v-2c0-4.829-3.441-8.869-8-9.798v-1.242c1.107-.167 2.067-.854 2.578-1.877l.549-1.097c.58-1.161.874-2.412.874-3.806 0-2.185-.851-4.239-2.396-5.784s-3.599-2.396-5.784-2.396h-.001-3.361c-.512-.762-1.125-1.437-1.827-2h17.368zm-28 25v-2c0-1.654 1.346-3 3-3h7v5c0 2.757-2.243 5-5 5s-5-2.243-5-5zm10-7h-4v-12h16v20h-10.08c.047-.328.08-.66.08-1v-5c0-1.103-.897-2-2-2zm-8 30.184c-1.161.414-2 1.514-2 2.816v1h2v-1c0-.551.448-1 1-1s1 .449 1 1c0 1.654-1.346 3-3 3s-3-1.346-3-3v-7.146c0-.683-.18-1.35-.509-1.941.314-.571.509-1.217.509-1.913h-2c0 1.103-.897 2-2 2h-1.999c-1.103 0-2-.897-2.001-2 0-.534.208-1.036.585-1.414.378-.378.88-.586 1.414-.586h5.001c2.757 0 5 2.243 5 5zm-7 1.816c-1.654 0-3-1.346-3-3v-3h.001 1.999c.715 0 1.377-.204 1.959-.534.025.128.041.257.041.388v6.146zm-5-35.443c-.591-.345-1.268-.557-2-.557h-2.586l-6.707-6.707-1.414 1.414 5.427 5.427c-.828.148-1.624.418-2.362.81l-1.651-1.651-1.414 1.414 1.41 1.41c-.103.093-.209.181-.308.28-1.544 1.545-2.395 3.599-2.395 5.869 0 1.309.294 2.561.874 3.72l.007.014h-2.881v-20h16zm-12 7.622c0-1.65.643-3.201 1.81-4.369 1.166-1.167 2.715-1.81 4.364-1.81h.001 3.825c1.103 0 2 .897 2 2s-.897 2-2 2h-2c-2.206 0-4 1.794-4 4v1.528c0 .812-.66 1.472-1.472 1.472-.562 0-1.066-.312-1.317-.814l-.548-1.097c-.44-.877-.663-1.828-.663-2.91zm4 6.482c1.178-.556 2-1.746 2-3.133v-1.528c0-1.103.897-2 2-2h2v3c0 1.654-1.346 3-3 3h-1v2h-2zm-12-26.661h24v28h-7.999v-.1c2.278-.464 3.999-2.485 3.999-4.899v-3.556c1.19-.694 2-1.97 2-3.444v-14.001h-20v24h6.096c.515.509 1.176.848 1.904.959v1.041h-10zm12 30.001 2-.001v.001c2.942 0 5.614 1.621 7.004 4.138-.686.176-1.319.518-1.833 1.032-.756.756-1.172 1.761-1.171 2.829.001 1.473.811 2.749 2 3.443v3.557c0 1.579.751 2.973 1.898 3.89-2.141.968-3.877 2.668-4.898 4.78-1.338-2.77-3.906-4.838-6.999-5.468v-.302c2.278-.465 3.999-2.486 3.999-4.9v-3.556c1.19-.694 2-1.97 2-3.444 0-2.205-1.794-4-4-4h-3.825c-.563 0-1.113.057-1.644.166 1.451-1.363 3.384-2.165 5.469-2.165zm-8.789 14.185-.548-1.096c-.44-.879-.663-1.83-.663-2.911 0-3.408 2.77-6.18 6.175-6.18l3.825.001c1.103 0 2 .898 2 2 0 1.103-.897 2-2 2h-2c-2.206 0-4 1.794-4 4v1.528c0 .811-.66 1.472-1.472 1.472-.561 0-1.066-.312-1.317-.814zm2.789 2.475c1.178-.556 2-1.746 2-3.133v-1.528c0-1.103.897-2 2-2h2v3c0 1.654-1.346 3-3 3h-1v2h-2zm-8 11.339c0-4.411 3.589-8 8-8h2c4.411 0 8 3.589 8 8zm20 0c0-4.411 3.589-8 8-8h.101c.465 2.279 2.484 4 4.899 4 1.191 0 2.271-.436 3.131-1.133 1.209 1.435 1.869 3.224 1.869 5.133zm38 0h-18c0-4.411 3.589-8 8-8h2c4.411 0 8 3.589 8 8zm-10-10-.001-2h-1c-1.653 0-2.999-1.346-2.999-3v-2.999h.002 1.999c1.103 0 2 .897 2 2v1.528c0 1.386.822 2.576 1.999 3.132v1.339zm-.179-14c1.65 0 3.202.643 4.369 1.81 1.168 1.167 1.811 2.719 1.811 4.456 0 .994-.223 1.945-.663 2.825l-.549 1.097c-.251.502-.755.813-1.316.813-.812 0-1.472-.661-1.472-1.472v-1.528c0-2.206-1.794-4-4-4h-1.999c-1.104 0-2.001-.897-2.001-2l-.001-2.001zm-5.918-1.99c-1.057.052-1.903.921-1.903 1.991l.001 2c0 1.473.81 2.749 1.999 3.443v3.556c0 2.414 1.721 4.435 4 4.899v.302c-3.094.631-5.664 2.7-7.002 5.472-.412-.858-.942-1.659-1.586-2.372.363-.692.588-1.467.588-2.301 0-1.302-.839-2.402-2-2.816v-5.184c0-3.312-2.315-6.088-5.409-6.811 1.098-2.512 3.593-4.189 6.409-4.189 1.852 0 3.609.743 4.903 2.01zm16.097-4.01h-16.111c.587-.574 1.068-1.251 1.425-2h12.686v-24h-20v14h-1c-.342 0-.677.035-1 .101v-16.101h24z"/><path d="m52 8.172h2v5.657h-2z" transform="matrix(.707 -.707 .707 .707 7.745 40.699)"/><path d="m46 14.172h2v5.657h-2z" transform="matrix(.707 -.707 .707 .707 1.745 38.213)"/><path d="m49 6.929h2v14.142h-2z" transform="matrix(.707 -.707 .707 .707 4.745 39.456)"/><path d="m20 8.172h2v5.657h-2z" transform="matrix(.707 -.707 .707 .707 -1.627 18.071)"/></g></svg>