<svg id="Layer_1" enable-background="new 0 0 512 512" height="512" viewBox="0 0 512 512" width="512" xmlns="http://www.w3.org/2000/svg"><g><g><path d="m483.229 0h-454.458c-15.861 0-28.764 12.904-28.764 28.765v129.909c0 15.877 12.903 28.793 28.764 28.793h21.699l.275 41.91c.025 3.755 2.15 7.179 5.504 8.867 1.421.715 2.961 1.067 4.495 1.067 2.085 0 4.16-.652 5.906-1.929l68.226-49.916h80.246l32.622 47.505c1.865 2.716 4.949 4.339 8.244 4.339s6.378-1.623 8.244-4.339l32.622-47.505h80.273l68.197 49.914c3.029 2.218 7.046 2.55 10.399.865 3.354-1.687 5.48-5.109 5.507-8.863l.298-41.916h21.704c15.861 0 28.764-12.917 28.764-28.793v-129.908c-.003-15.861-12.906-28.765-28.767-28.765zm8.764 158.674c0 4.849-3.932 8.793-8.764 8.793h-31.633c-5.495 0-9.961 4.434-10 9.929l-.23 32.306-55.067-40.304c-1.714-1.254-3.782-1.931-5.906-1.931h-88.805c-3.295 0-6.378 1.623-8.244 4.339l-27.358 39.84-27.358-39.84c-1.865-2.716-4.949-4.339-8.244-4.339h-88.777c-2.123 0-4.191.676-5.905 1.929l-55.086 40.304-.212-32.297c-.036-5.498-4.503-9.935-10-9.935h-31.633c-4.833 0-8.764-3.945-8.764-8.793v-129.91c0-4.833 3.932-8.765 8.764-8.765h454.458c4.833 0 8.764 3.932 8.764 8.765z"/><path d="m477.28 415.781c4.975-8.246 7.842-17.9 7.842-28.213 0-30.225-24.577-54.815-54.785-54.815-30.225 0-54.814 24.59-54.814 54.815 0 10.314 2.87 19.969 7.848 28.216-7.267 3.343-13.726 8.12-19.046 13.932-7.726-22.411-25.165-40.722-47.497-49.325 8.408-12.029 13.359-26.643 13.359-42.4 0-40.916-33.287-74.204-74.202-74.204s-74.202 33.288-74.202 74.204c0 15.759 4.953 30.376 13.363 42.406-22.334 8.605-39.773 26.913-47.5 49.321-5.319-5.813-11.777-10.589-19.044-13.932 4.976-8.247 7.845-17.903 7.845-28.217 0-30.225-24.577-54.815-54.786-54.815-30.224 0-54.813 24.59-54.813 54.815 0 10.314 2.87 19.969 7.848 28.216-20.56 9.458-34.691 30.375-34.691 53.818v32.397c0 5.523 4.477 10 10 10h201.08c5.523 0 10-4.477 10-10s-4.477-10-10-10h-47.795v-22.399-14.031c0-28.207 20.023-52.838 47.225-59.002 12.57 9.78 28.345 15.627 45.469 15.627 17.126 0 32.903-5.848 45.474-15.631 27.198 6.158 47.22 30.794 47.22 59.006v14.031 22.399h-47.795c-5.523 0-10 4.477-10 10s4.477 10 10 10h201.108c5.523 0 10-4.477 10-10v-32.399c.002-23.446-14.138-44.364-34.711-53.82zm-395.617-63.029c19.181 0 34.786 15.618 34.786 34.815 0 19.182-15.605 34.787-34.786 34.787-19.196 0-34.813-15.605-34.813-34.787 0-19.196 15.617-34.815 34.813-34.815zm-61.656 139.248v-22.399c0-17.809 12.32-33.413 29.255-37.879 9.083 6.677 20.287 10.632 32.401 10.632 12.107 0 23.303-3.955 32.381-10.63 16.931 4.469 29.247 20.071 29.247 37.877v22.399zm181.777-154.009c0-29.888 24.315-54.204 54.202-54.204s54.202 24.315 54.202 54.204c0 29.888-24.315 54.203-54.202 54.203s-54.202-24.316-54.202-54.203zm228.553 14.761c19.181 0 34.785 15.618 34.785 34.815 0 19.182-15.604 34.787-34.785 34.787-19.196 0-34.814-15.605-34.814-34.787 0-19.196 15.618-34.815 34.814-34.815zm-61.657 116.849c0-17.809 12.32-33.413 29.255-37.879 9.083 6.677 20.287 10.632 32.401 10.632 12.107 0 23.304-3.955 32.382-10.631 16.946 4.466 29.274 20.069 29.274 37.877v22.4h-123.312z"/><path d="m449.838 55.813h-260.406c-5.523 0-10 4.477-10 10s4.477 10 10 10h260.407c5.523 0 10-4.477 10-10s-4.478-10-10.001-10z"/><path d="m62.133 75.813h74.35c5.523 0 10-4.477 10-10s-4.477-10-10-10h-74.35c-5.523 0-10 4.477-10 10s4.477 10 10 10z"/><path d="m449.838 111.626h-74.321c-5.523 0-10 4.477-10 10s4.477 10 10 10h74.321c5.523 0 10-4.477 10-10s-4.477-10-10-10z"/><path d="m322.54 111.626h-260.407c-5.523 0-10 4.477-10 10s4.477 10 10 10h260.407c5.523 0 10-4.477 10-10s-4.477-10-10-10z"/><path d="m255.986 492c-5.523 0-10 4.477-10 10s4.477 10 10 10h.057c5.523 0 9.972-4.477 9.972-10s-4.506-10-10.029-10z"/></g></g></svg>