<svg id="Capa_1" enable-background="new 0 0 512 512" height="512" viewBox="0 0 512 512" width="512" xmlns="http://www.w3.org/2000/svg"><g><path d="m497.5 443.599h-11.5v-287.619c0-10.752-8.748-19.5-19.5-19.5h-194.13c-4.41-3.781-10.126-6.072-16.37-6.072s-11.96 2.291-16.37 6.072h-93.31c-4.143 0-7.5 3.358-7.5 7.5s3.357 7.5 7.5 7.5h84.807c-.808 4.786-.262 9.829 1.837 14.531h-164.554c-6.341 0-11.5 5.159-11.5 11.5v240.056c0 6.341 5.159 11.5 11.5 11.5h375.18c6.341 0 11.5-5.159 11.5-11.5v-240.056c0-6.341-5.159-11.5-11.5-11.5h-164.554c2.048-4.586 2.667-9.618 1.837-14.531h185.627c2.481 0 4.5 2.019 4.5 4.5v287.619h-430v-287.619c0-2.481 2.019-4.5 4.5-4.5h65.82c4.143 0 7.5-3.358 7.5-7.5s-3.357-7.5-7.5-7.5h-65.82c-10.752 0-19.5 8.748-19.5 19.5v287.619h-11.5c-7.995 0-14.5 6.505-14.5 14.5v38.667c0 7.995 6.505 14.5 14.5 14.5h290c4.143 0 7.5-3.358 7.5-7.5s-3.357-7.5-7.5-7.5h-289.5v-37.667h482v37.667h-157.5c-4.143 0-7.5 3.358-7.5 7.5s3.357 7.5 7.5 7.5h158c7.995 0 14.5-6.505 14.5-14.5v-38.667c0-7.995-6.505-14.5-14.5-14.5zm-241.5-298.191c5.682 0 10.229 4.716 10.229 10.302 0 5.68-4.589 10.302-10.229 10.302s-10.229-4.621-10.229-10.302c0-5.526 4.491-10.302 10.229-10.302zm184.09 35.603v233.056h-368.18v-233.056z"/><path d="m91.743 395.499h102.571c4.143 0 7.5-3.358 7.5-7.5v-13.816c0-22.908-13.18-42.784-32.348-52.48 11.041-8.138 18.221-21.226 18.221-35.964 0-24.625-20.033-44.659-44.658-44.659s-44.659 20.033-44.659 44.658c0 14.738 7.18 27.826 18.221 35.964-19.168 9.696-32.348 29.572-32.348 52.48v13.816c0 4.143 3.358 7.501 7.5 7.501zm21.627-109.761c0-16.354 13.305-29.659 29.659-29.659s29.658 13.305 29.658 29.659-13.305 29.659-29.658 29.659c-16.354 0-29.659-13.305-29.659-29.659zm-14.127 88.445c0-24.144 19.643-43.786 43.786-43.786s43.785 19.642 43.785 43.786v6.316h-87.571z"/><path d="m231.5 395.499h178.757c9.649 0 17.5-7.851 17.5-17.5v-160.919c0-9.649-7.851-17.5-17.5-17.5h-178.757c-9.649 0-17.5 7.851-17.5 17.5v160.919c0 9.65 7.851 17.5 17.5 17.5zm-2.5-178.419c0-1.378 1.121-2.5 2.5-2.5h178.757c1.379 0 2.5 1.122 2.5 2.5v160.919c0 1.378-1.121 2.5-2.5 2.5h-178.757c-1.379 0-2.5-1.122-2.5-2.5z"/><path d="m320.878 326.704c16.081 0 29.164-13.083 29.164-29.164s-13.083-29.164-29.164-29.164-29.164 13.083-29.164 29.164 13.083 29.164 29.164 29.164zm0-43.328c7.811 0 14.164 6.354 14.164 14.164s-6.354 14.164-14.164 14.164-14.164-6.354-14.164-14.164 6.353-14.164 14.164-14.164z"/><path d="m261.996 318.698h5.113c.251.638.514 1.271.788 1.9l-3.617 3.617c-4.817 4.817-4.817 12.657 0 17.474l12.449 12.449c4.818 4.815 12.656 4.816 17.475-.001l3.616-3.616c.629.274 1.262.537 1.899.788v5.113c0 6.813 5.543 12.356 12.356 12.356h17.604c6.813 0 12.355-5.543 12.355-12.356v-5.113c.638-.251 1.271-.514 1.9-.789l3.617 3.618c4.818 4.815 12.656 4.815 17.475-.001l12.447-12.448c4.817-4.817 4.817-12.657 0-17.474l-3.616-3.616c.273-.629.537-1.263.788-1.9h5.113c6.813 0 12.355-5.543 12.355-12.356v-17.604c0-6.813-5.543-12.356-12.355-12.356h-5.113c-.251-.638-.515-1.271-.788-1.9l3.616-3.616c4.817-4.818 4.817-12.657 0-17.475l-12.447-12.448c-4.818-4.819-12.657-4.817-17.476 0l-3.616 3.616c-.629-.274-1.263-.537-1.9-.789v-5.113c0-6.813-5.543-12.356-12.355-12.356h-17.604c-6.813 0-12.356 5.543-12.356 12.356v5.113c-.638.251-1.271.514-1.899.788l-3.616-3.616c-4.816-4.817-12.656-4.819-17.475 0l-12.449 12.447c-4.817 4.818-4.817 12.657.001 17.475l3.616 3.616c-.274.628-.537 1.262-.788 1.9h-5.113c-6.813 0-12.356 5.543-12.356 12.356v17.604c0 6.814 5.543 12.357 12.356 12.357zm2.644-27.316h7.846c3.358 0 6.308-2.233 7.219-5.465.906-3.217 2.199-6.333 3.843-9.265 1.644-2.93 1.138-6.596-1.238-8.972l-5.552-5.552 8.709-8.709 5.553 5.553c2.377 2.376 6.043 2.881 8.973 1.238 2.933-1.646 6.049-2.938 9.262-3.843 3.233-.911 5.467-3.86 5.467-7.219v-7.846h12.316v7.846c0 3.359 2.233 6.309 5.468 7.219 3.213.905 6.328 2.197 9.262 3.843 2.927 1.641 6.595 1.139 8.973-1.238l5.552-5.553 8.709 8.709-5.552 5.552c-2.377 2.376-2.883 6.042-1.238 8.973 1.645 2.93 2.937 6.046 3.842 9.261.911 3.233 3.86 5.467 7.22 5.467h7.846v12.316h-7.846c-3.359 0-6.309 2.234-7.22 5.467-.905 3.216-2.197 6.331-3.841 9.26-1.646 2.931-1.14 6.598 1.236 8.974l5.553 5.553-8.709 8.709-5.552-5.553c-2.378-2.376-6.044-2.881-8.973-1.238-2.932 1.645-6.048 2.938-9.263 3.843-3.233.911-5.467 3.86-5.467 7.219v7.846h-12.318v-7.846c0-3.359-2.233-6.308-5.466-7.219-3.215-.906-6.331-2.199-9.263-3.843-2.928-1.642-6.596-1.139-8.973 1.238l-5.552 5.553-8.71-8.71 5.553-5.552c2.375-2.376 2.881-6.042 1.237-8.972s-2.937-6.047-3.843-9.264c-.911-3.232-3.86-5.465-7.219-5.465h-7.846v-12.315z"/><path d="m301.147 112.535c3.924 1.335 8.182-.765 9.516-4.686.873-2.566 1.315-5.256 1.315-7.994 0-6.927-2.857-13.407-7.84-17.779-28.201-24.747-68.417-24.608-96.443.453-15.409 13.779-6.095 40.876 14.01 40.876 5.094 0 10.077-1.92 14.032-5.408 10.69-9.426 24.789-10.205 35.83-3.693 3.565 2.104 8.166.918 10.271-2.649s.918-8.166-2.649-10.271c-17.411-10.271-38.53-7.726-53.373 5.362-2.313 2.041-5.419 2.19-7.732.316-3.874-3.138-4.148-9.99-.39-13.352 22.4-20.028 54.051-20.104 76.552-.36 1.737 1.524 2.733 3.896 2.733 6.505 0 1.092-.174 2.157-.517 3.165-1.334 3.921.765 8.181 4.685 9.515z"/><path d="m175.234 85.63c5.916 0 11.807-2.589 16.149-7.615 35.303-40.855 93.654-41.177 129.379-.609 7.784 8.841 20.359 9.97 29.26 2.62 10.115-8.352 11.302-24.272 2.54-34.256-52.995-60.373-140.792-60.022-193.271.908-12.879 14.951-2.633 38.954 15.943 38.952zm-4.578-29.162c46.477-53.96 123.6-54.383 170.633-.802 3.206 3.652 2.762 9.84-.828 12.804-2.585 2.134-6.056 1.734-8.44-.976-41.572-47.209-110.526-47.268-151.986.714-2.482 2.873-6.048 3.072-8.471 1.022-3.565-2.918-4.083-9.075-.908-12.762z"/></g></svg>